<?xml version="1.0" standalone="no"?><!DOCTYPE svg PUBLIC "-//W3C//DTD SVG 1.1//EN" "http://www.w3.org/Graphics/SVG/1.1/DTD/svg11.dtd"><svg t="1636435667599" class="icon" viewBox="0 0 1024 1024" version="1.1" xmlns="http://www.w3.org/2000/svg" p-id="3080" xmlns:xlink="http://www.w3.org/1999/xlink" width="200" height="200"><defs><style type="text/css"></style></defs><path d="M174.545455 256m23.272727 0l465.454545 0q23.272727 0 23.272728 23.272727l0 93.090909q0 23.272727-23.272728 23.272728l-465.454545 0q-23.272727 0-23.272727-23.272728l0-93.090909q0-23.272727 23.272727-23.272727Z" fill="#F7E579" p-id="3081"></path><path d="M884.363636 256m-69.818181 0a69.818182 69.818182 0 1 0 139.636363 0 69.818182 69.818182 0 1 0-139.636363 0Z" fill="#F7E579" p-id="3082"></path><path d="M979.781818 372.363636l-74.472727-128a23.272727 23.272727 0 1 0-40.261818 23.272728l74.472727 128a23.272727 23.272727 0 0 1 3.025455 11.636363V768a23.272727 23.272727 0 0 1-23.272728 23.272727h-46.545454a23.272727 23.272727 0 0 1-23.272728-23.272727V395.636364a69.818182 69.818182 0 0 0-69.818181-69.818182h-46.545455V162.909091a162.909091 162.909091 0 0 0-162.909091-162.909091h-279.272727a162.909091 162.909091 0 0 0-162.909091 162.909091v814.545454h-69.818182a23.272727 23.272727 0 0 0 0 46.545455h744.727273a23.272727 23.272727 0 0 0 0-46.545455h-69.818182V372.363636h46.545455a23.272727 23.272727 0 0 1 23.272727 23.272728v372.363636a69.818182 69.818182 0 0 0 69.818182 69.818182h46.545454a69.818182 69.818182 0 0 0 69.818182-69.818182V408.203636a69.818182 69.818182 0 0 0-9.309091-35.84zM174.545455 977.454545V162.909091a116.363636 116.363636 0 0 1 116.363636-116.363636h279.272727a116.363636 116.363636 0 0 1 116.363637 116.363636v814.545454z" fill="#1B1B5C" p-id="3083"></path><path d="M570.181818 465.454545h-279.272727a69.818182 69.818182 0 0 1-69.818182-69.818181v-139.636364a69.818182 69.818182 0 0 1 69.818182-69.818182h279.272727a69.818182 69.818182 0 0 1 69.818182 69.818182v139.636364a69.818182 69.818182 0 0 1-69.818182 69.818181z m-279.272727-232.727272a23.272727 23.272727 0 0 0-23.272727 23.272727v139.636364a23.272727 23.272727 0 0 0 23.272727 23.272727h279.272727a23.272727 23.272727 0 0 0 23.272727-23.272727v-139.636364a23.272727 23.272727 0 0 0-23.272727-23.272727z" fill="#1B1B5C" p-id="3084"></path></svg>